<?xml version="1.0" standalone="no"?>
<!DOCTYPE svg PUBLIC "-//W3C//DTD SVG 20010904//EN"
 "http://www.w3.org/TR/2001/REC-SVG-20010904/DTD/svg10.dtd">
<svg version="1.0" xmlns="http://www.w3.org/2000/svg"
 width="300.000000pt" height="294.000000pt" viewBox="0 0 300.000000 294.000000"
 preserveAspectRatio="xMidYMid meet">
<metadata>
Created by potrace 1.10, written by Peter Selinger 2001-2011
</metadata>
<g transform="translate(0.000000,294.000000) scale(0.050000,-0.050000)"
fill="#1115cc" stroke="none">
<path d="M2700 5690 c-1797 -271 -2825 -2229 -2005 -3818 281 -544 762 -989
1293 -1194 183 -71 177 -74 255 126 74 189 76 180 -67 225 -649 202 -1211 773
-1423 1445 -467 1479 548 3060 2037 3175 258 20 350 34 350 53 0 25 -236 19
-440 -12z"/>
<path d="M2833 5519 c-488 -54 -919 -255 -1273 -592 -208 -199 -205 -184 -98
-378 95 -173 96 -173 167 -71 30 43 110 132 178 197 1512 1449 3824 83 3275
-1935 -11 -38 -33 -119 -50 -180 -18 -60 -32 -117 -32 -125 0 -30 36 -14 46
20 6 19 30 98 53 175 477 1570 -695 3065 -2266 2889z"/>
<path d="M2969 4773 c-65 -49 -324 -250 -574 -446 l-455 -357 -7 -225 c-4
-124 -4 -225 0 -225 4 0 296 225 649 500 l642 500 208 0 c417 0 596 -167 597
-560 2 -386 -171 -559 -575 -576 l-215 -9 5 482 c6 467 -3 545 -54 463 -7 -11
-84 -74 -171 -141 l-159 -121 0 -1008 0 -1008 190 152 190 152 0 327 0 327
206 0 c644 0 1013 398 968 1045 -38 562 -321 794 -985 810 l-341 8 -119 -90z
m171 -122 c0 -38 -9 -74 -20 -81 -12 -7 -20 20 -20 69 0 44 9 81 20 81 11 0
20 -31 20 -69z m85 -1402 c54 -18 41 -72 -36 -149 -60 -59 -74 -65 -92 -40
-17 25 -19 25 -10 -4 6 -19 3 -40 -8 -47 -12 -7 -19 64 -19 181 l0 192 65 -61
c36 -34 81 -66 100 -72z"/>
<path d="M2671 3921 c-7 -10 -81 -74 -166 -143 l-155 -124 -10 -729 -10 -729
-47 -38 c-38 -30 -80 -38 -210 -38 l-163 0 -230 -182 c-126 -100 -238 -189
-247 -198 -10 -9 216 -14 501 -12 l518 5 134 109 133 108 1 995 c0 918 -6
1046 -49 976z m-158 -1826 c-7 -25 -13 -58 -13 -75 -1 -27 -3 -27 -22 0 -17
24 -19 21 -11 -16 8 -38 5 -42 -19 -23 -25 22 -36 13 -31 -24 1 -7 -12 -18
-29 -25 -17 -7 -25 -3 -18 8 7 11 -6 20 -29 20 -58 0 -51 37 9 52 28 7 50 21
50 31 0 11 9 14 20 7 11 -7 20 5 20 27 0 36 23 57 67 61 10 1 12 -18 6 -43z"/>
<path d="M5400 2822 c0 -168 -253 -730 -439 -977 -414 -547 -1207 -798 -2141
-677 -115 15 -223 27 -240 26 -16 0 -93 10 -170 24 -77 13 -198 34 -270 47
-71 12 -154 34 -184 48 -30 15 -70 27 -89 27 -95 0 61 -83 283 -151 1763 -539
3073 -4 3442 1406 70 270 71 265 -72 265 -104 0 -120 -5 -120 -38z"/>
</g>
</svg>
